<?xml version="1.0" encoding="UTF-8" standalone="no"?>
<!-- Created with Inkscape (http://www.inkscape.org/) -->

<svg
   xmlns:dc="http://purl.org/dc/elements/1.1/"
   xmlns:cc="http://creativecommons.org/ns#"
   xmlns:rdf="http://www.w3.org/1999/02/22-rdf-syntax-ns#"
   xmlns:svg="http://www.w3.org/2000/svg"
   xmlns="http://www.w3.org/2000/svg"
   version="1.1"
   width="20"
   height="20"
   viewBox="0 0 20 20"
   id="Layer_1"
   xml:space="preserve"><metadata
     id="metadata3096"><rdf:RDF><cc:Work
         rdf:about=""><dc:format>image/svg+xml</dc:format><dc:type
           rdf:resource="http://purl.org/dc/dcmitype/StillImage" /><dc:title></dc:title></cc:Work></rdf:RDF></metadata><defs
     id="defs3094" /><g
     id="g3185"><path
       d="m 12.491514,9.9995009 c 0,0.4840001 0,0.9690001 0,1.4520001 -0.001,0.614 -0.425,1.042 -1.042,1.043 -0.966,0.002 -1.9340002,0.002 -2.9000002,0 -0.615,-10e-4 -1.04,-0.431 -1.04,-1.043 -10e-4,-0.968 -10e-4,-1.9370001 0,-2.9020001 0,-0.615 0.425,-1.042 1.04,-1.043 0.966,-0.002 1.9340002,-0.002 2.9000002,0 0.617,0.002 1.041,0.429 1.042,1.043 0,0.484 0,0.967 0,1.45 z"
       id="path3074"
       style="fill:#2780b9;fill-rule:evenodd" /><path
       d="m 13.989514,10.001501 c 0,-0.4820001 -10e-4,-0.9660001 0,-1.4500001 10e-4,-0.617 0.422,-1.043 1.038,-1.046 0.971,-0.002 1.941,-0.002 2.912,0 0.608,0.003 1.032,0.434 1.032,1.041 0.002,0.97 0.002,1.9400001 0,2.9110001 0,0.597 -0.42,1.03 -1.018,1.035 -0.981,0.005 -1.963,0.005 -2.943,0 -0.603,-0.005 -1.02,-0.435 -1.021,-1.041 -10e-4,-0.481 0,-0.966 0,-1.45 z"
       id="path3076"
       style="fill:#2780b9;fill-rule:evenodd" /><path
       d="m 6.0105138,10.010501 c 0,0.48 0,0.96 0,1.441 -0.001,0.614 -0.424,1.042 -1.04,1.043 -0.968,0.002 -1.935,0.002 -2.901,0 -0.615,-10e-4 -1.042,-0.433 -1.042,-1.043 0,-0.968 0,-1.9370001 0,-2.9020001 0,-0.608 0.424,-1.04 1.032,-1.043 0.973,-0.003 1.949,-0.003 2.922,0 0.609,0.004 1.028,0.432 1.029,1.043 0,0.487 0,0.974 0,1.4610001 z"
       id="path3078"
       style="fill:#277fb9;fill-rule:evenodd" /><path
       d="m 10.008514,1.0295009 c 0.486,0 0.974,-0.003 1.46,0.001 0.534,0.003 0.924,0.333 1.012,0.853 0.011,0.063 0.011,0.13 0.011,0.194 0,0.96 0,1.92 0,2.881 0,0.634 -0.424,1.055 -1.06,1.055 -0.964,0 -1.9270002,0.002 -2.8910002,0 -0.532,0 -0.933,-0.337 -1.022,-0.855 -0.01,-0.06 -0.009,-0.123 -0.009,-0.185 -10e-4,-0.968 -0.002,-1.935 -10e-4,-2.902 10e-4,-0.619 0.42,-1.04 1.039,-1.042 0.486,-0.002 0.974,-10e-4 1.4610002,0 z"
       id="path3080"
       style="fill:#277fb9;fill-rule:evenodd" /><path
       d="m 9.9995138,18.969501 c -0.48,0 -0.96,0 -1.44,0 -0.633,-0.001 -1.051,-0.42 -1.052,-1.05 0,-0.959 0,-1.919 0,-2.882 0.001,-0.626 0.424,-1.053 1.052,-1.053 0.96,0 1.9200002,0 2.8810002,0 0.625,0 1.05,0.427 1.05,1.055 0,0.978 0.001,1.954 -10e-4,2.933 -10e-4,0.483 -0.321,0.874 -0.795,0.979 -0.088,0.019 -0.177,0.019 -0.266,0.019 -0.24,0 -0.48,0 -0.721,0 -0.235,-10e-4 -0.472,-10e-4 -0.7080002,-10e-4 z"
       id="path3082"
       style="fill:#277fb9;fill-rule:evenodd" /><path
       d="m 3.5215138,1.0285009 c 0.487,0 0.974,-0.002 1.461,10e-4 0.532,0.003 0.924,0.329 1.016,0.837 0.012,0.067 0.011,0.137 0.011,0.205 0.001,0.963 0.001,1.927 0.001,2.89 -0.001,0.629 -0.425,1.051 -1.054,1.052 -0.956,10e-4 -1.913,0 -2.87,0 -0.634,0 -1.06,-0.424 -1.06,-1.055 0,-0.973 -0.001,-1.947 0,-2.921 0.002,-0.492 0.324,-0.886 0.799,-0.989 0.087,-0.02 0.177,-0.019 0.267,-0.019 0.476,-10e-4 0.952,-10e-4 1.429,-10e-4 z"
       id="path3084"
       style="fill:#277fb9;fill-rule:evenodd" /><path
       d="m 16.482514,1.0285009 c 0.476,0 0.954,0.011 1.43,-0.002 0.636,-0.018 1.072,0.484 1.064,1.066 -0.016,0.953 -0.004,1.906 -0.005,2.859 0,0.639 -0.423,1.061 -1.063,1.061 -0.96,0 -1.921,0.002 -2.881,0 -0.532,0 -0.934,-0.33 -1.024,-0.84 -0.013,-0.063 -0.014,-0.129 -0.014,-0.194 0,-0.971 -10e-4,-1.941 0,-2.911 10e-4,-0.613 0.42,-1.034 1.033,-1.038 0.486,-0.002 0.973,-10e-4 1.46,-10e-4 z"
       id="path3086"
       style="fill:#277fb9;fill-rule:evenodd" /><path
       d="m 3.5185138,18.969501 c -0.476,0 -0.954,-0.01 -1.43,0.004 -0.635,0.018 -1.074,-0.486 -1.065,-1.064 0.015,-0.972 0.003,-1.941 0.004,-2.911 0.001,-0.485 0.312,-0.875 0.777,-0.983 0.09,-0.023 0.183,-0.029 0.275,-0.029 0.96,0 1.92,0 2.882,0 0.623,0 1.047,0.425 1.048,1.046 0,0.969 0,1.934 0,2.9 -10e-4,0.612 -0.418,1.035 -1.031,1.038 -0.487,0.001 -0.974,-10e-4 -1.46,-10e-4 z"
       id="path3088"
       style="fill:#277fb9;fill-rule:evenodd" /><path
       d="m 16.477514,18.969501 c -0.487,0 -0.974,0.002 -1.461,0 -0.531,-0.003 -0.924,-0.328 -1.015,-0.837 -0.013,-0.067 -0.013,-0.136 -0.013,-0.205 0,-0.964 0,-1.927 0,-2.891 0,-0.629 0.425,-1.052 1.052,-1.052 0.958,0 1.915,0 2.872,0 0.635,0 1.059,0.425 1.059,1.056 0.001,0.977 0.002,1.949 0,2.924 -0.002,0.49 -0.322,0.884 -0.798,0.986 -0.087,0.019 -0.177,0.019 -0.266,0.019 -0.477,0 -0.953,0 -1.43,0 z"
       id="path3090"
       style="fill:#277fb9;fill-rule:evenodd" /></g></svg>