<?xml version="1.0" encoding="utf-8"?>
<!-- Generator: Adobe Illustrator 16.0.0, SVG Export Plug-In . SVG Version: 6.00 Build 0)  -->
<!DOCTYPE svg PUBLIC "-//W3C//DTD SVG 1.1//EN" "http://www.w3.org/Graphics/SVG/1.1/DTD/svg11.dtd">
<svg version="1.1" id="Layer_1" xmlns="http://www.w3.org/2000/svg" xmlns:xlink="http://www.w3.org/1999/xlink" x="0px" y="0px"
	 width="25px" height="25px" viewBox="0 0 25 25" enable-background="new 0 0 25 25" xml:space="preserve">
<path fill-rule="evenodd" clip-rule="evenodd" fill="#2981BB" d="M12.498,0.02C5.588,0.022-0.001,5.608,0,12.512
	C0.001,19.416,5.593,25.002,12.501,25C19.411,24.998,25,19.412,25,12.508C24.998,5.604,19.406,0.018,12.498,0.02z M17.807,12.602
	c-1.502,1.839-3.005,3.677-4.51,5.514c-0.45,0.549-0.902,0.692-1.366,0.436c-0.185-0.103-0.33-0.255-0.462-0.417
	c-1.51-1.845-3.021-3.689-4.529-5.537c-0.163-0.199-0.371-0.415-0.238-0.69c0.127-0.264,0.424-0.229,0.666-0.232
	c0.706-0.01,1.412-0.001,2.117-0.005c0.528-0.002,0.828-0.305,0.831-0.833c0.002-0.646,0-1.292,0-1.938c0-0.636-0.001-1.272,0-1.908
	c0.001-0.507,0.305-0.814,0.814-0.817c0.835-0.005,1.669-0.006,2.504,0c0.485,0.003,0.796,0.324,0.797,0.808
	c0.002,1.252,0.001,2.504,0.001,3.757c0,0.659,0.275,0.932,0.945,0.932c0.665,0.001,1.332-0.006,1.997,0.004
	c0.242,0.004,0.534-0.031,0.663,0.236C18.174,12.189,17.968,12.402,17.807,12.602z"/>
</svg>
