<?xml version="1.0" encoding="utf-8"?>
<!DOCTYPE svg PUBLIC "-//W3C//DTD SVG 1.1//EN" "http://www.w3.org/Graphics/SVG/1.1/DTD/svg11.dtd">
<svg version="1.1" id="Layer_1" xmlns="http://www.w3.org/2000/svg" xmlns:xlink="http://www.w3.org/1999/xlink" x="0px" y="0px"
	 width="16px" height="16px" viewBox="0 0 16 16" enable-background="new 0 0 16 16" xml:space="preserve">
<g>
	<g>
		<path fill-rule="evenodd" clip-rule="evenodd" fill="#8C8C8C" d="M15.643,2.297C15,1.668,14.368,1.029,13.734,0.392
			c-0.115-0.116-0.25-0.197-0.4-0.252c-0.269-0.098-0.546-0.135-0.829-0.137C11.719,0,10.932,0.001,10.144,0
			C9.89,0,9.636-0.001,9.383,0.042C9.057,0.099,8.742,0.184,8.494,0.427C7.671,1.231,6.85,2.036,6.028,2.84
			C5.378,3.477,4.729,4.113,4.08,4.75C2.835,5.97,1.59,7.191,0.346,8.414C0.041,8.712,0.041,9.056,0.343,9.357
			c2.102,2.102,4.204,4.204,6.305,6.305c0.293,0.293,0.634,0.293,0.93,0c0.275-0.27,0.551-0.543,0.825-0.815
			c1.233-1.226,2.464-2.45,3.696-3.675c1.146-1.143,2.294-2.284,3.439-3.426c0.06-0.06,0.118-0.122,0.167-0.191
			c0.204-0.286,0.287-0.611,0.291-0.958c0.005-0.587,0.001-1.174,0.001-1.761c0-0.556-0.012-1.113,0.003-1.669
			C16.01,2.816,15.892,2.542,15.643,2.297z M11.796,5.746C10.938,5.74,10.253,5.059,10.253,4.2c-0.009-0.79,0.618-1.544,1.545-1.544
			c0.877,0.001,1.546,0.685,1.543,1.546C13.341,5.118,12.596,5.75,11.796,5.746z"/>
	</g>
</g>
</svg>
