<?xml version="1.0" encoding="utf-8"?>
<!-- Generator: Adobe Illustrator 16.0.0, SVG Export Plug-In . SVG Version: 6.00 Build 0)  -->
<!DOCTYPE svg PUBLIC "-//W3C//DTD SVG 1.1//EN" "http://www.w3.org/Graphics/SVG/1.1/DTD/svg11.dtd">
<svg version="1.1" id="Layer_1" xmlns="http://www.w3.org/2000/svg" xmlns:xlink="http://www.w3.org/1999/xlink" x="0px" y="0px"
	 width="38px" height="38px" viewBox="0 0 50 50" enable-background="new 0 0 50 50" xml:space="preserve">
<g>
	<path fill-rule="evenodd" clip-rule="evenodd" fill="#2A81BB" d="M8.743,24.707c0-6.048,0-12.095,0-18.143
		c0-2.088,0.838-2.915,2.952-2.916c5.707,0,11.414,0.014,17.121-0.018c0.723-0.003,0.888,0.204,0.88,0.9
		c-0.037,3.321,0.005,6.644-0.033,9.965c-0.009,0.722,0.216,0.89,0.908,0.883c3.321-0.035,6.644-0.001,9.966-0.027
		c0.588-0.005,0.764,0.152,0.763,0.754c-0.019,9.028-0.01,18.058-0.017,27.086c-0.001,1.585-0.963,2.538-2.557,2.538
		c-9.143,0.007-18.284,0.007-27.426,0c-1.625-0.001-2.554-0.962-2.555-2.626C8.74,36.972,8.743,30.839,8.743,24.707z M25.53,33.299
		c0.89,0.004,1.756-0.146,2.598-0.413c3.347-1.062,5.834-3.305,8.071-5.894c0.338-0.392,0.16-0.645-0.099-0.938
		c-1.794-2.043-3.789-3.841-6.233-5.078c-2.295-1.161-4.667-1.512-7.162-0.659c-3.263,1.114-5.7,3.319-7.888,5.872
		c-0.314,0.367-0.124,0.605,0.102,0.874c0.899,1.065,1.864,2.07,2.941,2.954C20.097,31.852,22.538,33.226,25.53,33.299z"/>
	<path fill-rule="evenodd" clip-rule="evenodd" fill="#3383BD" d="M31.965,5.102c2.68,2.65,5.311,5.25,8.002,7.91
		c-2.541,0-5.051-0.003-7.561,0.004c-0.335,0.001-0.445-0.15-0.444-0.463C31.967,10.064,31.965,7.577,31.965,5.102z"/>
	<path fill-rule="evenodd" clip-rule="evenodd" fill="#2D82BC" id="eyeball" d="M28.386,26.604c-0.017,1.727-1.274,3.013-2.92,2.985
		c-1.628-0.026-2.832-1.363-2.797-3.106c0.034-1.689,1.267-2.952,2.875-2.944C27.178,23.547,28.402,24.868,28.386,26.604z"/>
</g>
</svg>
