<?xml version="1.0" encoding="UTF-8" standalone="no"?>
<!-- Generator: Adobe Illustrator 16.0.0, SVG Export Plug-In . SVG Version: 6.00 Build 0)  -->

<svg
   xmlns:dc="http://purl.org/dc/elements/1.1/"
   xmlns:cc="http://creativecommons.org/ns#"
   xmlns:rdf="http://www.w3.org/1999/02/22-rdf-syntax-ns#"
   xmlns:svg="http://www.w3.org/2000/svg"
   xmlns="http://www.w3.org/2000/svg"
   xmlns:sodipodi="http://sodipodi.sourceforge.net/DTD/sodipodi-0.dtd"
   xmlns:inkscape="http://www.inkscape.org/namespaces/inkscape"
   version="1.1"
   id="Layer_1"
   x="0px"
   y="0px"
   width="744.09448"
   height="1052.3622"
   viewBox="0 0 979.07169 1384.6871"
   enable-background="new 0 0 50 50"
   xml:space="preserve"
   inkscape:version="0.48.5 r10040"
   sodipodi:docname="pending.svg"><metadata
     id="metadata3987"><rdf:RDF><cc:Work
         rdf:about=""><dc:format>image/svg+xml</dc:format><dc:type
           rdf:resource="http://purl.org/dc/dcmitype/StillImage" /><dc:title></dc:title></cc:Work></rdf:RDF></metadata><defs
     id="defs3985" /><sodipodi:namedview
     pagecolor="#ffffff"
     bordercolor="#666666"
     borderopacity="1"
     objecttolerance="10"
     gridtolerance="10"
     guidetolerance="10"
     inkscape:pageopacity="0"
     inkscape:pageshadow="2"
     inkscape:window-width="1628"
     inkscape:window-height="1422"
     id="namedview3983"
     showgrid="false"
     inkscape:zoom="0.27577164"
     inkscape:cx="1193.6313"
     inkscape:cy="-591.56741"
     inkscape:window-x="1"
     inkscape:window-y="1"
     inkscape:window-maximized="0"
     inkscape:current-layer="Layer_1" /><g
     id="g4676"
     transform="matrix(0.49866798,0,0,0.49866798,159.1989,235.58544)"><path
       sodipodi:nodetypes="ccssccccccccccccccccccccccssccccccccccccccccscccccccccs"
       inkscape:connector-curvature="0"
       id="path3978"
       d="m 724.32454,572.7258 c -93.04352,0.52171 -186.10797,0.29877 -279.15149,0.29877 -34.4654,0.0163 -48.12699,13.51284 -48.12699,47.55435 l 0,295.78306 c 0,99.97252 -0.0317,199.95992 0.0498,299.91602 0.0163,27.1289 15.1606,42.8075 41.65363,42.8238 149.04572,0.1142 298.07333,0.1142 447.13535,0 25.98763,0 41.66224,-15.5388 41.67853,-41.3797 0.11412,-147.1871 -0.0359,-294.42097 0.27387,-441.6081 0.0163,-9.81465 -2.83749,-12.35602 -12.42388,-12.2745 -54.15992,0.4239 -108.3379,-0.14736 -162.48151,0.42326 -11.28195,0.11412 -14.96078,-2.61973 -14.81405,-14.39079 0.61953,-54.1436 -0.0555,-108.313 0.54775,-162.45661 0.13042,-11.34717 -2.55364,-14.73849 -14.341,-14.68956 z m -63.19002,160.98765 c 18.80369,2.3e-4 33.87027,4.9512 45.21398,14.86384 11.44564,9.91308 17.17917,22.98983 17.17932,39.23857 -1.5e-4,7.76695 -1.8484,15.18226 -5.52726,22.23352 -3.67914,6.94938 -10.09824,14.81431 -19.29561,23.60289 l -13.49448,13.19571 c -4.80325,4.80326 -8.23891,8.56925 -10.2827,11.32839 -1.94178,2.65717 -3.31553,5.26308 -4.13299,7.81784 -0.61326,2.14618 -1.06288,4.75209 -1.36937,7.81783 -0.30667,3.06593 -0.47314,7.25924 -0.47305,12.57327 l 0,18.87236 -29.27954,0 0,-23.62779 c -6e-5,-10.32155 1.44577,-18.80256 4.30728,-25.44531 2.86138,-6.64253 8.87805,-14.34098 18.07563,-23.12984 l 13.79325,-13.64387 c 5.82499,-5.41615 10.0183,-10.53359 12.57327,-15.3369 2.65695,-4.80297 3.9835,-9.70675 3.98361,-14.71446 -1.1e-4,-9.09512 -3.36368,-16.46325 -10.10841,-22.08414 -6.64274,-5.62049 -15.47899,-8.41516 -26.5159,-8.41537 -8.07344,2.1e-4 -16.72092,1.77637 -25.91837,5.35297 -9.09535,3.57702 -18.59487,8.78884 -28.50771,15.63567 l 0,-28.80648 c 9.60625,-5.82486 19.31943,-10.18465 29.13015,-13.04632 9.91281,-2.86121 20.12279,-4.28215 30.6489,-4.28238 z m -22.38291,194.07651 31.12196,0 0,38.91489 -31.12196,0 z m 13.36999,71.82947 c 24.54905,-0.055 48.41938,6.61897 71.80458,18.44907 39.84551,20.1673 72.35865,49.4766 101.60696,82.7844 4.22258,4.7769 7.12888,8.8962 1.61834,15.2871 -36.47071,42.2096 -77.01613,78.7904 -131.58363,96.1046 -13.72746,4.353 -27.84073,6.7876 -42.35075,6.7224 -48.77979,-1.1902 -88.58976,-23.5882 -125.06047,-53.5049 -17.55877,-14.4122 -33.29595,-30.7887 -47.95271,-48.1519 -3.68457,-4.3856 -6.76251,-8.258 -1.64324,-14.2414 35.67185,-41.6226 75.39792,-77.594 128.59592,-95.756 15.25388,-5.2151 30.23558,-7.66031 44.965,-7.69337 z"
       style="fill:#2a81bb;fill-rule:evenodd" /><path
       clip-rule="evenodd"
       d="m 775.65186,596.73608 c 43.69312,43.20402 86.58738,85.59287 130.45983,128.95992 -41.42694,0 -82.34849,-0.0489 -123.27003,0.0652 -5.46164,0.0163 -7.25501,-2.44551 -7.23871,-7.54848 0.0815,-40.57917 0.0489,-81.12574 0.0489,-121.47666 z"
       id="path3980"
       inkscape:connector-curvature="0"
       style="fill:#3383bd;fill-rule:evenodd" /><path
       sodipodi:nodetypes="ccccc"
       clip-rule="evenodd"
       id="eyeball"
       d="m 701.0828,1072.7601 c -0.27716,28.1559 -20.77054,49.1222 -47.60594,48.6657 -26.54194,-0.4239 -46.17124,-22.2216 -45.60062,-50.6384 0.55431,-27.5365 20.65641,-48.1277 46.87228,-47.9972 26.63976,0.1304 46.59513,21.6672 46.33428,49.9699 z"
       inkscape:connector-curvature="0"
       style="fill:#2d82bc;fill-rule:evenodd" /></g></svg>