<?xml version="1.0" encoding="UTF-8"?>
<!DOCTYPE svg PUBLIC "-//W3C//DTD SVG 1.1//EN" "http://www.w3.org/Graphics/SVG/1.1/DTD/svg11.dtd">
<svg version="1.1" xmlns="http://www.w3.org/2000/svg" xmlns:xlink="http://www.w3.org/1999/xlink" x="0" y="0" width="216.26" height="43.5" viewBox="0, 0, 216.26, 43.5">
  <g id="Layer_1">
    <g>
      <path d="M23.165,33.819 C21.195,33.658 19.835,33.283 18.63,32.568 C15.609,30.775 12.216,26.403 12.407,24.549 C12.495,23.7 13.392,22.868 15.166,21.986 C15.964,21.59 17.428,20.998 17.609,21 C17.646,21 17.801,21.383 17.954,21.852 C18.581,23.778 19.22,24.822 20.652,26.26 C23.272,28.89 27.629,31.438 31.369,32.526 C32.053,32.725 32.055,32.725 32.021,32.759 C31.944,32.836 30.511,33.216 29.636,33.391 C27.501,33.818 25.092,33.978 23.165,33.819 z M42.838,33.824 C40.95,33.68 37.575,33.03 37.304,32.759 C37.27,32.725 37.272,32.725 37.956,32.526 C41.696,31.438 46.053,28.89 48.673,26.26 C50.105,24.822 50.744,23.778 51.371,21.852 C51.523,21.383 51.679,21 51.716,21 C51.897,20.998 53.361,21.59 54.159,21.986 C55.529,22.667 56.442,23.377 56.769,24.018 C57.796,26.032 52.841,32.075 49.184,33.268 C47.703,33.751 44.994,33.989 42.838,33.824 z M30.676,30.611 C27.023,29.536 22.581,26.713 20.778,24.321 C18.66,21.512 17.936,14.126 19.632,12.637 C20.403,11.961 22.465,11.946 25.056,12.597 C25.614,12.738 27.101,13.217 27.159,13.275 C27.176,13.291 27.123,13.49 27.041,13.717 C26.665,14.761 26.487,15.775 26.487,16.887 C26.487,19.722 27.534,23.575 29.237,27.008 C30.015,28.576 30.365,29.147 31.506,30.712 C31.621,30.869 31.504,30.855 30.676,30.611 z M37.819,30.712 C38.96,29.147 39.31,28.576 40.088,27.008 C41.791,23.575 42.838,19.722 42.838,16.887 C42.838,15.775 42.66,14.761 42.284,13.717 C42.202,13.49 42.149,13.291 42.166,13.275 C42.224,13.217 43.711,12.738 44.269,12.597 C46.86,11.946 48.922,11.961 49.693,12.637 C51.389,14.126 50.665,21.512 48.547,24.321 C46.739,26.721 42.266,29.559 38.629,30.614 C37.789,30.858 37.705,30.868 37.819,30.712 z" fill="#1D577C" id="path3442"/>
      <path d="M34.048,30.891 C30.921,29.807 27.073,20.453 27.981,16.148 C28.648,12.99 31.585,8.668 33.809,7.573 C34.835,7.068 35.672,7.405 37.196,8.94 C39.156,10.913 40.843,13.855 41.326,16.142 C42.059,19.618 39.67,26.772 36.767,29.79 C35.764,30.833 34.896,31.184 34.048,30.891 z" fill="#2B80B7" id="path3442"/>
    </g>
    <path d="M72.451,21.648 L72.451,14.372 L76.599,14.372 Q77.517,14.372 78.367,14.508 Q79.216,14.644 79.863,15.035 Q80.508,15.426 80.9,16.14 Q81.291,16.854 81.291,18.01 Q81.291,19.166 80.9,19.88 Q80.508,20.594 79.863,20.985 Q79.216,21.376 78.367,21.512 Q77.517,21.648 76.599,21.648 z M67.113,10.224 L67.113,34.5 L72.451,34.5 L72.451,25.796 L78.061,25.796 Q80.339,25.796 81.937,25.133 Q83.535,24.47 84.537,23.382 Q85.541,22.294 86,20.883 Q86.459,19.472 86.459,18.01 Q86.459,16.514 86,15.12 Q85.541,13.726 84.537,12.638 Q83.535,11.55 81.937,10.887 Q80.339,10.224 78.061,10.224 z" fill="#383838"/>
    <path d="M88.29,10.224 L88.29,34.5 L106.718,34.5 L106.718,30.012 L93.629,30.012 L93.629,24.062 L105.393,24.062 L105.393,19.914 L93.629,19.914 L93.629,14.712 L106.447,14.712 L106.447,10.224 z" fill="#383838"/>
    <path d="M114.16,21.648 L114.16,14.372 L118.309,14.372 Q119.227,14.372 120.076,14.508 Q120.927,14.644 121.573,15.035 Q122.219,15.426 122.61,16.14 Q123.001,16.854 123.001,18.01 Q123.001,19.166 122.61,19.88 Q122.219,20.594 121.573,20.985 Q120.927,21.376 120.076,21.512 Q119.227,21.648 118.309,21.648 z M108.823,10.224 L108.823,34.5 L114.16,34.5 L114.16,25.796 L119.771,25.796 Q122.049,25.796 123.646,25.133 Q125.244,24.47 126.248,23.382 Q127.251,22.294 127.71,20.883 Q128.169,19.472 128.169,18.01 Q128.169,16.514 127.71,15.12 Q127.251,13.726 126.248,12.638 Q125.244,11.55 123.646,10.887 Q122.049,10.224 119.771,10.224 z" fill="#383838"/>
    <path d="M133.604,25.116 L136.766,16.208 L136.834,16.208 L139.895,25.116 z M134.115,10.224 L124.934,34.5 L130.306,34.5 L132.21,29.094 L141.288,29.094 L143.124,34.5 L148.666,34.5 L139.589,10.224 z" fill="#383838"/>
    <path d="M158.719,19.648 L162.931,19.648 Q164.659,19.648 165.802,20.188 Q166.945,20.728 167.629,21.628 Q168.313,22.528 168.592,23.68 Q168.871,24.832 168.871,26.056 Q168.871,27.424 168.52,28.603 Q168.169,29.782 167.431,30.646 Q166.693,31.51 165.568,32.005 Q164.443,32.5 162.895,32.5 L158.719,32.5 z M162.967,31.816 Q163.867,31.816 164.776,31.537 Q165.685,31.258 166.423,30.601 Q167.161,29.944 167.62,28.837 Q168.079,27.73 168.079,26.056 Q168.079,24.742 167.818,23.806 Q167.557,22.87 167.134,22.231 Q166.711,21.592 166.162,21.223 Q165.613,20.854 165.028,20.656 Q164.443,20.458 163.858,20.395 Q163.273,20.332 162.805,20.332 L159.511,20.332 L159.511,31.816 z" fill="#515151"/>
    <path d="M170.725,19.648 L171.859,19.648 L176.881,31.618 L176.917,31.618 L181.885,19.648 L183.019,19.648 L183.019,32.5 L182.227,32.5 L182.227,20.62 L182.191,20.62 L177.295,32.5 L176.503,32.5 L171.553,20.62 L171.517,20.62 L171.517,32.5 L170.725,32.5 z" fill="#515151"/>
    <path d="M193.675,23.32 Q193.639,22.492 193.324,21.88 Q193.009,21.268 192.469,20.854 Q191.929,20.44 191.182,20.233 Q190.435,20.026 189.553,20.026 Q189.013,20.026 188.392,20.152 Q187.771,20.278 187.24,20.593 Q186.709,20.908 186.367,21.439 Q186.025,21.97 186.025,22.762 Q186.025,23.536 186.403,24.022 Q186.781,24.508 187.393,24.805 Q188.005,25.102 188.797,25.282 Q189.589,25.462 190.399,25.624 Q191.227,25.786 192.01,26.011 Q192.793,26.236 193.414,26.623 Q194.035,27.01 194.413,27.631 Q194.791,28.252 194.791,29.188 Q194.791,30.196 194.359,30.88 Q193.927,31.564 193.27,31.996 Q192.613,32.428 191.812,32.617 Q191.011,32.806 190.273,32.806 Q189.139,32.806 188.149,32.563 Q187.159,32.32 186.421,31.771 Q185.683,31.222 185.26,30.358 Q184.837,29.494 184.855,28.252 L185.647,28.252 Q185.593,29.314 185.953,30.043 Q186.313,30.772 186.952,31.24 Q187.591,31.708 188.455,31.915 Q189.319,32.122 190.273,32.122 Q190.849,32.122 191.506,31.978 Q192.163,31.834 192.712,31.492 Q193.261,31.15 193.63,30.592 Q193.999,30.034 193.999,29.188 Q193.999,28.378 193.621,27.865 Q193.243,27.352 192.622,27.037 Q192.001,26.722 191.218,26.533 Q190.435,26.344 189.607,26.182 Q188.797,26.02 188.005,25.804 Q187.213,25.588 186.601,25.219 Q185.989,24.85 185.611,24.265 Q185.233,23.68 185.233,22.762 Q185.233,21.844 185.62,21.187 Q186.007,20.53 186.628,20.125 Q187.249,19.72 188.023,19.531 Q188.797,19.342 189.553,19.342 Q190.561,19.342 191.434,19.567 Q192.307,19.792 192.964,20.269 Q193.621,20.746 194.017,21.502 Q194.413,22.258 194.467,23.32 z" fill="#515151"/>
  </g>
</svg>
