<?xml version="1.0" encoding="UTF-8"?>
<!DOCTYPE svg PUBLIC "-//W3C//DTD SVG 1.1//EN" "http://www.w3.org/Graphics/SVG/1.1/DTD/svg11.dtd">
<svg version="1.1" xmlns="http://www.w3.org/2000/svg" xmlns:xlink="http://www.w3.org/1999/xlink" x="0" y="0" width="216.26" height="43.5" viewBox="0, 0, 432.52, 87">
  <g id="Layer_1">
    <g>
      <g>
        <path d="M46.33,73.639 C42.389,73.316 39.67,72.565 37.259,71.136 C31.217,67.551 24.431,58.807 24.814,55.097 C24.989,53.4 26.783,51.735 30.331,49.973 C31.927,49.18 34.856,47.997 35.218,47.999 C35.292,48 35.602,48.767 35.907,49.704 C37.162,53.557 38.439,55.644 41.304,58.52 C46.544,63.781 55.258,68.876 62.738,71.052 C64.105,71.45 64.109,71.451 64.042,71.519 C63.887,71.673 61.022,72.432 59.272,72.782 C55.001,73.636 50.183,73.955 46.33,73.639 z M85.675,73.648 C81.9,73.359 75.149,72.06 74.607,71.519 C74.54,71.451 74.544,71.45 75.911,71.052 C83.391,68.876 92.105,63.781 97.345,58.52 C100.21,55.644 101.487,53.557 102.741,49.704 C103.046,48.767 103.357,48 103.431,47.999 C103.793,47.997 106.722,49.18 108.318,49.973 C111.057,51.333 112.883,52.755 113.537,54.037 C115.592,58.064 105.681,70.149 98.368,72.536 C95.405,73.503 89.988,73.978 85.675,73.648 z M61.352,67.223 C54.045,65.073 45.161,59.427 41.555,54.643 C37.32,49.024 35.872,34.253 39.264,31.275 C40.805,29.922 44.929,29.892 50.111,31.195 C51.227,31.476 54.202,32.434 54.318,32.55 C54.352,32.583 54.245,32.981 54.082,33.434 C53.329,35.522 52.974,37.551 52.974,39.775 C52.974,45.445 55.068,53.151 58.474,60.016 C60.03,63.153 60.729,64.295 63.012,67.425 C63.241,67.738 63.007,67.71 61.352,67.223 z M75.637,67.425 C77.92,64.295 78.619,63.153 80.175,60.016 C83.581,53.151 85.675,45.445 85.675,39.775 C85.675,37.551 85.32,35.522 84.567,33.434 C84.404,32.981 84.297,32.583 84.331,32.55 C84.447,32.434 87.422,31.476 88.538,31.195 C93.72,29.892 97.844,29.922 99.385,31.275 C102.777,34.253 101.329,49.024 97.094,54.643 C93.477,59.442 84.532,65.117 77.258,67.228 C75.577,67.716 75.409,67.736 75.637,67.425 z" fill="#1D577C" id="path3442"/>
        <path d="M68.095,67.781 C61.843,65.613 54.145,46.906 55.962,38.296 C57.296,31.979 63.17,23.335 67.618,21.145 C69.67,20.135 71.344,20.81 74.393,23.879 C78.313,27.825 81.686,33.709 82.652,38.284 C84.119,45.236 79.341,59.543 73.535,65.58 C71.528,67.667 69.792,68.369 68.095,67.781 z" fill="#2B80B7" id="path3442"/>
      </g>
      <path d="M144.901,49.296 L144.901,34.744 L153.197,34.744 Q155.033,34.744 156.733,35.016 Q158.433,35.288 159.725,36.07 Q161.017,36.852 161.799,38.28 Q162.581,39.708 162.581,42.02 Q162.581,44.332 161.799,45.76 Q161.017,47.188 159.725,47.97 Q158.433,48.752 156.733,49.024 Q155.033,49.296 153.197,49.296 z M134.225,26.448 L134.225,75 L144.901,75 L144.901,57.592 L156.121,57.592 Q160.677,57.592 163.873,56.266 Q167.069,54.94 169.075,52.764 Q171.081,50.588 171.999,47.766 Q172.917,44.944 172.917,42.02 Q172.917,39.028 171.999,36.24 Q171.081,33.452 169.075,31.276 Q167.069,29.1 163.873,27.774 Q160.677,26.448 156.121,26.448 z" fill="#383838"/>
      <path d="M176.581,26.448 L176.581,75 L213.437,75 L213.437,66.024 L187.257,66.024 L187.257,54.124 L210.785,54.124 L210.785,45.828 L187.257,45.828 L187.257,35.424 L212.893,35.424 L212.893,26.448 z" fill="#383838"/>
      <path d="M228.321,49.296 L228.321,34.744 L236.617,34.744 Q238.453,34.744 240.153,35.016 Q241.853,35.288 243.145,36.07 Q244.437,36.852 245.219,38.28 Q246.001,39.708 246.001,42.02 Q246.001,44.332 245.219,45.76 Q244.437,47.188 243.145,47.97 Q241.853,48.752 240.153,49.024 Q238.453,49.296 236.617,49.296 z M217.645,26.448 L217.645,75 L228.321,75 L228.321,57.592 L239.541,57.592 Q244.097,57.592 247.293,56.266 Q250.489,54.94 252.495,52.764 Q254.501,50.588 255.419,47.766 Q256.337,44.944 256.337,42.02 Q256.337,39.028 255.419,36.24 Q254.501,33.452 252.495,31.276 Q250.489,29.1 247.293,27.774 Q244.097,26.448 239.541,26.448 z" fill="#383838"/>
      <path d="M267.209,56.232 L273.533,38.416 L273.669,38.416 L279.789,56.232 z M268.229,26.448 L249.869,75 L260.613,75 L264.421,64.188 L282.577,64.188 L286.249,75 L297.333,75 L279.177,26.448 z" fill="#383838"/>
      <path d="M317.438,45.296 L325.862,45.296 Q329.318,45.296 331.604,46.376 Q333.89,47.456 335.258,49.256 Q336.626,51.056 337.184,53.36 Q337.742,55.664 337.742,58.112 Q337.742,60.848 337.04,63.206 Q336.338,65.564 334.862,67.292 Q333.386,69.02 331.136,70.01 Q328.886,71 325.79,71 L317.438,71 z M325.934,69.632 Q327.734,69.632 329.552,69.074 Q331.37,68.516 332.846,67.202 Q334.322,65.888 335.24,63.674 Q336.158,61.46 336.158,58.112 Q336.158,55.484 335.636,53.612 Q335.114,51.74 334.268,50.462 Q333.422,49.184 332.324,48.446 Q331.226,47.708 330.056,47.312 Q328.886,46.916 327.716,46.79 Q326.546,46.664 325.61,46.664 L319.022,46.664 L319.022,69.632 z" fill="#515151"/>
      <path d="M341.45,45.296 L343.718,45.296 L353.762,69.236 L353.834,69.236 L363.77,45.296 L366.038,45.296 L366.038,71 L364.454,71 L364.454,47.24 L364.382,47.24 L354.59,71 L353.006,71 L343.106,47.24 L343.034,47.24 L343.034,71 L341.45,71 z" fill="#515151"/>
      <path d="M387.35,52.64 Q387.278,50.984 386.648,49.76 Q386.018,48.536 384.938,47.708 Q383.858,46.88 382.364,46.466 Q380.87,46.052 379.106,46.052 Q378.026,46.052 376.784,46.304 Q375.542,46.556 374.48,47.186 Q373.418,47.816 372.734,48.878 Q372.05,49.94 372.05,51.524 Q372.05,53.072 372.806,54.044 Q373.562,55.016 374.786,55.61 Q376.01,56.204 377.594,56.564 Q379.178,56.924 380.798,57.248 Q382.454,57.572 384.02,58.022 Q385.586,58.472 386.828,59.246 Q388.07,60.02 388.826,61.262 Q389.582,62.504 389.582,64.376 Q389.582,66.392 388.718,67.76 Q387.854,69.128 386.54,69.992 Q385.226,70.856 383.624,71.234 Q382.022,71.612 380.546,71.612 Q378.278,71.612 376.298,71.126 Q374.318,70.64 372.842,69.542 Q371.366,68.444 370.52,66.716 Q369.674,64.988 369.71,62.504 L371.294,62.504 Q371.186,64.628 371.906,66.086 Q372.626,67.544 373.904,68.48 Q375.182,69.416 376.91,69.83 Q378.638,70.244 380.546,70.244 Q381.698,70.244 383.012,69.956 Q384.326,69.668 385.424,68.984 Q386.522,68.3 387.26,67.184 Q387.998,66.068 387.998,64.376 Q387.998,62.756 387.242,61.73 Q386.486,60.704 385.244,60.074 Q384.002,59.444 382.436,59.066 Q380.87,58.688 379.214,58.364 Q377.594,58.04 376.01,57.608 Q374.426,57.176 373.202,56.438 Q371.978,55.7 371.222,54.53 Q370.466,53.36 370.466,51.524 Q370.466,49.688 371.24,48.374 Q372.014,47.06 373.256,46.25 Q374.498,45.44 376.046,45.062 Q377.594,44.684 379.106,44.684 Q381.122,44.684 382.868,45.134 Q384.614,45.584 385.928,46.538 Q387.242,47.492 388.034,49.004 Q388.826,50.516 388.934,52.64 z" fill="#515151"/>
    </g>
  </g>
</svg>
